<?xml version="1.0" encoding="UTF-8"?>
<svg width="75px" height="9px" viewBox="0 0 75 9" version="1.1" xmlns="http://www.w3.org/2000/svg" xmlns:xlink="http://www.w3.org/1999/xlink">
    <title>CONNECT ID docs</title>
    <defs></defs>
    <g id="Page-1" stroke="none" stroke-width="1" fill="none" fill-rule="evenodd">
        <path d="M0.8984375,6.14941406 L0.8984375,2.56054688 C0.8984375,1.21939434 1.74152803,0.548828125 3.42773438,0.548828125 C3.71093892,0.548828125 4.02424958,0.586262646 4.36767578,0.661132812 C4.71110198,0.736002979 4.98860571,0.825520312 5.20019531,0.9296875 C5.22623711,0.955729297 5.23030608,1.00781211 5.21240234,1.0859375 C5.19449861,1.16406289 5.16194685,1.24218711 5.11474609,1.3203125 C5.06754534,1.39843789 5.02929702,1.43098965 5,1.41796875 C4.45312227,1.16731646 3.92578379,1.04199219 3.41796875,1.04199219 C3.15429556,1.04199219 2.91097117,1.06803359 2.68798828,1.12011719 C2.4650054,1.17220078 2.25992932,1.25439397 2.07275391,1.36669922 C1.88557849,1.47900447 1.73828179,1.63688049 1.63085938,1.84033203 C1.52343696,2.04378357 1.46972656,2.28385278 1.46972656,2.56054688 L1.46972656,6.14941406 C1.46972656,6.38704546 1.50797488,6.59537671 1.58447266,6.77441406 C1.66097043,6.95345142 1.7594395,7.09586536 1.87988281,7.20166016 C2.00032612,7.30745496 2.14925042,7.39371711 2.32666016,7.46044922 C2.5040699,7.52718132 2.68066318,7.57193999 2.85644531,7.59472656 C3.03222744,7.61751313 3.22753799,7.62890625 3.44238281,7.62890625 C4.08040684,7.62890625 4.61588325,7.52311304 5.04882813,7.31152344 C5.06510425,7.30501299 5.08382151,7.3172199 5.10498047,7.34814453 C5.12613943,7.37906917 5.14567048,7.41731748 5.16357422,7.46289062 C5.18147795,7.50846377 5.19694004,7.55729141 5.20996094,7.609375 C5.22298184,7.66145859 5.22949219,7.70540347 5.22949219,7.74121094 C5.22949219,7.77701841 5.22298184,7.79980464 5.20996094,7.80957031 C5.02766836,7.89746138 4.76237153,7.97151663 4.4140625,8.03173828 C4.06575347,8.09195994 3.74186348,8.12207031 3.44238281,8.12207031 C1.74641079,8.12207031 0.8984375,7.4645248 0.8984375,6.14941406 Z M6.43554688,6.15917969 L6.43554688,2.53125 C6.43554688,1.86067373 6.65689883,1.36263184 7.09960938,1.03710938 C7.54231992,0.711586914 8.14778262,0.548828125 8.91601562,0.548828125 C9.69075908,0.548828125 10.299477,0.711586914 10.7421875,1.03710938 C11.184898,1.36263184 11.40625,1.86067373 11.40625,2.53125 L11.40625,6.15917969 C11.40625,6.61165591 11.299643,6.98681492 11.0864258,7.28466797 C10.8732086,7.58252102 10.5851255,7.79654883 10.222168,7.92675781 C9.85921042,8.0569668 9.42383066,8.12207031 8.91601562,8.12207031 C8.14127217,8.12207031 7.53418188,7.9625667 7.09472656,7.64355469 C6.65527124,7.32454268 6.43554688,6.82975596 6.43554688,6.15917969 Z M7.00683594,6.15917969 C7.00683594,6.66048428 7.17691887,7.03076052 7.51708984,7.27001953 C7.85726082,7.50927854 8.32356475,7.62890625 8.91601562,7.62890625 C9.5084665,7.62890625 9.97639802,7.50846475 10.3198242,7.26757812 C10.6632504,7.0266915 10.8349609,6.65722905 10.8349609,6.15917969 L10.8349609,2.53125 C10.8349609,2.02343496 10.6640642,1.64990354 10.3222656,1.41064453 C9.98046704,1.17138552 9.51172173,1.05175781 8.91601562,1.05175781 C8.32030952,1.05175781 7.8531918,1.17138552 7.51464844,1.41064453 C7.17610508,1.64990354 7.00683594,2.02343496 7.00683594,2.53125 L7.00683594,6.15917969 Z M13.2958984,7.98046875 L13.2958984,0.690429688 C13.2958984,0.651366992 13.4391262,0.631835938 13.7255859,0.631835938 C13.9990248,0.631835938 14.1455077,0.651366992 14.1650391,0.690429688 L16.4453125,5.0703125 C16.5787767,5.32422002 16.77897,5.70588938 17.0458984,6.21533203 C17.3128269,6.72477468 17.5130202,7.10644404 17.6464844,7.36035156 L17.65625,7.36035156 C17.6432291,6.52050361 17.6367188,5.88737192 17.6367188,5.4609375 L17.6367188,0.690429688 C17.6367188,0.651366992 17.7294913,0.631835938 17.9150391,0.631835938 C18.1070973,0.631835938 18.203125,0.651366992 18.203125,0.690429688 L18.203125,7.98046875 C18.203125,8.01953145 18.0598973,8.0390625 17.7734375,8.0390625 C17.5390613,8.0390625 17.4121095,8.01953145 17.3925781,7.98046875 L14.9853516,3.41015625 C14.8583978,3.17578008 14.6695976,2.82015212 14.4189453,2.34326172 C14.168293,1.86637131 13.9794928,1.50911577 13.8525391,1.27148438 L13.8427734,1.27148438 C13.8557943,1.69140835 13.8623047,2.33105039 13.8623047,3.19042969 L13.8623047,7.98046875 C13.8623047,8.01953145 13.7695322,8.0390625 13.5839844,8.0390625 C13.3919261,8.0390625 13.2958984,8.01953145 13.2958984,7.98046875 Z M20.1855469,7.98046875 L20.1855469,0.690429688 C20.1855469,0.651366992 20.3287746,0.631835938 20.6152344,0.631835938 C20.8886732,0.631835938 21.0351562,0.651366992 21.0546875,0.690429688 L23.3349609,5.0703125 C23.4684251,5.32422002 23.6686185,5.70588938 23.9355469,6.21533203 C24.2024753,6.72477468 24.4026686,7.10644404 24.5361328,7.36035156 L24.5458984,7.36035156 C24.5328775,6.52050361 24.5263672,5.88737192 24.5263672,5.4609375 L24.5263672,0.690429688 C24.5263672,0.651366992 24.6191397,0.631835938 24.8046875,0.631835938 C24.9967458,0.631835938 25.0927734,0.651366992 25.0927734,0.690429688 L25.0927734,7.98046875 C25.0927734,8.01953145 24.9495457,8.0390625 24.6630859,8.0390625 C24.4287098,8.0390625 24.3017579,8.01953145 24.2822266,7.98046875 L21.875,3.41015625 C21.7480462,3.17578008 21.559246,2.82015212 21.3085938,2.34326172 C21.0579415,1.86637131 20.8691413,1.50911577 20.7421875,1.27148438 L20.7324219,1.27148438 C20.7454428,1.69140835 20.7519531,2.33105039 20.7519531,3.19042969 L20.7519531,7.98046875 C20.7519531,8.01953145 20.6591806,8.0390625 20.4736328,8.0390625 C20.2815746,8.0390625 20.1855469,8.01953145 20.1855469,7.98046875 Z M27.0751953,8 L27.0751953,0.670898438 L30.6054688,0.670898438 C30.6445314,0.670898438 30.6640625,0.757160596 30.6640625,0.9296875 C30.6640625,1.09570396 30.6445314,1.17871094 30.6054688,1.17871094 L27.6416016,1.17871094 L27.6416016,3.91796875 L30.234375,3.91796875 C30.2734377,3.91796875 30.2929688,4.00260332 30.2929688,4.171875 C30.2929688,4.33789146 30.2734377,4.42089844 30.234375,4.42089844 L27.6416016,4.42089844 L27.6416016,7.4921875 L30.625,7.4921875 C30.6640627,7.4921875 30.6835938,7.57519448 30.6835938,7.74121094 C30.6835938,7.91373784 30.6640627,8 30.625,8 L27.0751953,8 Z M32.0800781,6.14941406 L32.0800781,2.56054688 C32.0800781,1.21939434 32.9231687,0.548828125 34.609375,0.548828125 C34.8925795,0.548828125 35.2058902,0.586262646 35.5493164,0.661132812 C35.8927426,0.736002979 36.1702463,0.825520312 36.3818359,0.9296875 C36.4078777,0.955729297 36.4119467,1.00781211 36.394043,1.0859375 C36.3761392,1.16406289 36.3435875,1.24218711 36.2963867,1.3203125 C36.249186,1.39843789 36.2109376,1.43098965 36.1816406,1.41796875 C35.6347629,1.16731646 35.1074244,1.04199219 34.5996094,1.04199219 C34.3359362,1.04199219 34.0926118,1.06803359 33.8696289,1.12011719 C33.646646,1.17220078 33.4415699,1.25439397 33.2543945,1.36669922 C33.0672191,1.47900447 32.9199224,1.63688049 32.8125,1.84033203 C32.7050776,2.04378357 32.6513672,2.28385278 32.6513672,2.56054688 L32.6513672,6.14941406 C32.6513672,6.38704546 32.6896155,6.59537671 32.7661133,6.77441406 C32.8426111,6.95345142 32.9410801,7.09586536 33.0615234,7.20166016 C33.1819667,7.30745496 33.330891,7.39371711 33.5083008,7.46044922 C33.6857105,7.52718132 33.8623038,7.57193999 34.0380859,7.59472656 C34.2138681,7.61751313 34.4091786,7.62890625 34.6240234,7.62890625 C35.2620475,7.62890625 35.7975239,7.52311304 36.2304688,7.31152344 C36.2467449,7.30501299 36.2654621,7.3172199 36.2866211,7.34814453 C36.3077801,7.37906917 36.3273111,7.41731748 36.3452148,7.46289062 C36.3631186,7.50846377 36.3785807,7.55729141 36.3916016,7.609375 C36.4046225,7.66145859 36.4111328,7.70540347 36.4111328,7.74121094 C36.4111328,7.77701841 36.4046225,7.79980464 36.3916016,7.80957031 C36.209309,7.89746138 35.9440122,7.97151663 35.5957031,8.03173828 C35.2473941,8.09195994 34.9235041,8.12207031 34.6240234,8.12207031 C32.9280514,8.12207031 32.0800781,7.4645248 32.0800781,6.14941406 Z M36.7675781,0.91015625 C36.7675781,0.750650244 36.7887368,0.670898438 36.8310547,0.670898438 L41.4990234,0.670898438 C41.5380861,0.670898438 41.5576172,0.750650244 41.5576172,0.91015625 C41.5576172,1.07617271 41.5380861,1.15917969 41.4990234,1.15917969 L39.4775391,1.15917969 L39.4775391,7.98046875 C39.4775391,8.01953145 39.3847666,8.0390625 39.1992188,8.0390625 C39.0071605,8.0390625 38.9111328,8.01953145 38.9111328,7.98046875 L38.9111328,1.15917969 L36.8310547,1.15917969 C36.7887368,1.15917969 36.7675781,1.07617271 36.7675781,0.91015625 Z M44.8339844,7.98046875 L44.8339844,0.690429688 C44.8339844,0.651366992 44.9283845,0.631835938 45.1171875,0.631835938 C45.3092458,0.631835938 45.4052734,0.651366992 45.4052734,0.690429688 L45.4052734,7.98046875 C45.4052734,8.01953145 45.3092458,8.0390625 45.1171875,8.0390625 C44.9283845,8.0390625 44.8339844,8.01953145 44.8339844,7.98046875 Z M47.3730469,8 L47.3730469,0.670898438 L49.6435547,0.670898438 C50.4541056,0.670898438 51.0432924,0.840981372 51.4111328,1.18115234 C51.7789732,1.52132332 51.9628906,2.03482729 51.9628906,2.72167969 L51.9628906,6.05175781 C51.9628906,6.71582363 51.7854835,7.20654138 51.4306641,7.52392578 C51.0758446,7.84131018 50.509444,8 49.7314453,8 L47.3730469,8 Z M47.9394531,7.50195313 L49.7607422,7.50195313 C50.3206408,7.50195313 50.7324206,7.38802197 50.9960938,7.16015625 C51.2597669,6.93229053 51.3916016,6.56282808 51.3916016,6.05175781 L51.3916016,2.71191406 C51.3916016,2.20409902 51.2532566,1.81998828 50.9765625,1.55957031 C50.6998684,1.29915234 50.2653024,1.16894531 49.6728516,1.16894531 L47.9394531,1.16894531 L47.9394531,7.50195313 Z M55.6591797,6.16894531 L55.6591797,4.42089844 C55.6591797,3.79264009 55.8300764,3.31006028 56.171875,2.97314453 C56.5136736,2.63622878 56.9693982,2.46777344 57.5390625,2.46777344 C57.9361999,2.46777344 58.2763658,2.54508386 58.5595703,2.69970703 C58.8427749,2.8543302 59.0494785,3.04719937 59.1796875,3.27832031 L59.1796875,0.568359375 C59.1796875,0.52929668 59.2692048,0.509765625 59.4482422,0.509765625 C59.6305348,0.509765625 59.7216797,0.52929668 59.7216797,0.568359375 L59.7216797,7.98046875 C59.7216797,8.01953145 59.6305348,8.0390625 59.4482422,8.0390625 C59.2757153,8.0390625 59.1894531,8.01953145 59.1894531,7.98046875 L59.1894531,7.22851562 C59.0494785,7.47265747 58.8403334,7.68261631 58.5620117,7.85839844 C58.28369,8.03418057 57.9524759,8.12207031 57.5683594,8.12207031 C56.9856742,8.12207031 56.5218116,7.95361497 56.1767578,7.61669922 C55.831704,7.27978347 55.6591797,6.79720366 55.6591797,6.16894531 Z M56.2011719,6.08105469 C56.2011719,7.10645044 56.7106069,7.61914062 57.7294922,7.61914062 C58.13314,7.61914062 58.4757473,7.48405083 58.7573242,7.21386719 C59.0389011,6.94368354 59.1796875,6.62630391 59.1796875,6.26171875 L59.1796875,4.39160156 C59.1796875,3.95214624 59.0340184,3.60221484 58.7426758,3.34179688 C58.4513332,3.08137891 58.0810569,2.95117188 57.6318359,2.95117188 C56.6780551,2.95117188 56.2011719,3.47037241 56.2011719,4.50878906 L56.2011719,6.08105469 Z M61.2451172,6.16894531 L61.2451172,4.42089844 C61.2451172,3.79264009 61.4265932,3.31006028 61.7895508,2.97314453 C62.1525083,2.63622878 62.6643847,2.46777344 63.3251953,2.46777344 C63.9925164,2.46777344 64.5092755,2.63622878 64.8754883,2.97314453 C65.241701,3.31006028 65.4248047,3.79264009 65.4248047,4.42089844 L65.4248047,6.16894531 C65.4248047,6.79069321 65.241701,7.27164543 64.8754883,7.61181641 C64.5092755,7.95198738 63.9925164,8.12207031 63.3251953,8.12207031 C62.6643847,8.12207031 62.1525083,7.95280117 61.7895508,7.61425781 C61.4265932,7.27571445 61.2451172,6.79394844 61.2451172,6.16894531 Z M61.7871094,6.08105469 C61.7871094,6.62793242 61.9181302,7.02425007 62.1801758,7.27001953 C62.4422214,7.51578899 62.8238907,7.63867188 63.3251953,7.63867188 C63.8362656,7.63867188 64.2244453,7.51741658 64.4897461,7.27490234 C64.7550469,7.03238811 64.8876953,6.63444287 64.8876953,6.08105469 L64.8876953,4.50878906 C64.8876953,3.96516655 64.7542331,3.57129028 64.4873047,3.32714844 C64.2203763,3.08300659 63.8330104,2.9609375 63.3251953,2.9609375 C62.8206355,2.9609375 62.4381523,3.0821928 62.1777344,3.32470703 C61.9173164,3.56722126 61.7871094,3.96191133 61.7871094,4.50878906 L61.7871094,6.08105469 Z M66.7333984,6.16894531 L66.7333984,4.42089844 C66.7333984,3.79589531 66.9108055,3.3141293 67.265625,2.97558594 C67.6204445,2.63704258 68.1103484,2.46777344 68.7353516,2.46777344 C69.3310577,2.46777344 69.8844375,2.65494604 70.3955078,3.02929688 C70.4313153,3.07161479 70.4386394,3.12939417 70.4174805,3.20263672 C70.3963215,3.27587927 70.3572594,3.34342417 70.300293,3.40527344 C70.2433265,3.46712271 70.1985679,3.48502617 70.1660156,3.45898438 C70.1627604,3.45898438 70.1456707,3.44759126 70.1147461,3.42480469 C70.0838215,3.40201812 70.0585938,3.38411465 70.0390625,3.37109375 C70.0195312,3.35807285 69.9869794,3.337728 69.9414062,3.31005859 C69.8958331,3.28238918 69.8551434,3.25960295 69.8193359,3.24169922 L69.6826172,3.17333984 C69.6272784,3.14567043 69.5751956,3.1228842 69.5263672,3.10498047 C69.4775388,3.08707673 69.421387,3.06754568 69.3579102,3.04638672 C69.2944333,3.02522776 69.2333987,3.00813809 69.1748047,2.99511719 C69.1162106,2.98209629 69.0519209,2.97151697 68.9819336,2.96337891 C68.9119463,2.95524084 68.8427738,2.95117188 68.7744141,2.95117188 C68.2861304,2.95117188 67.9142265,3.08137891 67.6586914,3.34179688 C67.4031563,3.60221484 67.2753906,3.99120835 67.2753906,4.50878906 L67.2753906,6.08105469 C67.2753906,6.59538018 67.4039701,6.98355989 67.6611328,7.24560547 C67.9182956,7.50765105 68.2893856,7.63867188 68.7744141,7.63867188 C69.2692082,7.63867188 69.7460915,7.46614756 70.2050781,7.12109375 C70.2343751,7.09505195 70.2766924,7.10807266 70.3320312,7.16015625 C70.3841148,7.21875029 70.4248045,7.28385381 70.4541016,7.35546875 C70.4671225,7.39127622 70.4744466,7.4213866 70.4760742,7.44580078 C70.4777018,7.47021497 70.4703777,7.48893223 70.4541016,7.50195313 C70.271809,7.6712248 70.0244156,7.81689392 69.7119141,7.93896484 C69.3994125,8.06103577 69.0738949,8.12207031 68.7353516,8.12207031 C68.1103484,8.12207031 67.6204445,7.95198738 67.265625,7.61181641 C66.9108055,7.27164543 66.7333984,6.79069321 66.7333984,6.16894531 Z M71.3525391,7.71191406 C71.3395182,7.70540361 71.3330078,7.69075532 71.3330078,7.66796875 C71.3330078,7.64192695 71.3427733,7.60612002 71.3623047,7.56054688 C71.3948569,7.47591104 71.4347328,7.39860061 71.4819336,7.32861328 C71.5291344,7.25862595 71.5657551,7.23177075 71.5917969,7.24804688 C72.0475283,7.50846484 72.4853495,7.63867188 72.9052734,7.63867188 C73.2731138,7.63867188 73.568521,7.53532004 73.7915039,7.32861328 C74.0144868,7.12190652 74.1259766,6.87207178 74.1259766,6.57910156 C74.1259766,6.39680898 74.0877282,6.2340502 74.0112305,6.09082031 C73.9347327,5.94759043 73.8338222,5.8304041 73.7084961,5.73925781 C73.5831699,5.64811152 73.440756,5.56022178 73.28125,5.47558594 C73.121744,5.3909501 72.9581714,5.31689485 72.7905273,5.25341797 C72.6228833,5.18994109 72.4593107,5.11263066 72.2998047,5.02148438 C72.1402987,4.93033809 71.9978847,4.8343104 71.8725586,4.73339844 C71.7472324,4.63248647 71.646322,4.50146565 71.5698242,4.34033203 C71.4933264,4.17919841 71.4550781,3.99609478 71.4550781,3.79101563 C71.4550781,3.40038867 71.6023748,3.08219524 71.8969727,2.83642578 C72.1915705,2.59065632 72.5911433,2.46777344 73.0957031,2.46777344 C73.5807316,2.46777344 74.0071596,2.54589766 74.375,2.70214844 C74.3977866,2.72819023 74.4018555,2.77701787 74.387207,2.84863281 C74.3725585,2.92024775 74.3465171,2.99348921 74.309082,3.06835938 C74.2716469,3.14322954 74.2431642,3.17740889 74.2236328,3.17089844 C74.008788,3.09277305 73.8183602,3.03662126 73.6523438,3.00244141 C73.4863273,2.96826155 73.286134,2.95117188 73.0517578,2.95117188 C72.7229801,2.95117188 72.4641937,3.03336506 72.2753906,3.19775391 C72.0865876,3.36214275 71.9921875,3.56314985 71.9921875,3.80078125 C71.9921875,3.94075591 72.0304358,4.06770776 72.1069336,4.18164063 C72.1834314,4.29557349 72.2843418,4.39078738 72.409668,4.46728516 C72.5349941,4.54378293 72.6774081,4.62190715 72.8369141,4.70166016 C72.9964201,4.78141316 73.1599927,4.85546841 73.3276367,4.92382813 C73.4952808,4.99218784 73.6588534,5.07763621 73.8183594,5.18017578 C73.9778654,5.28271536 74.1202793,5.39257754 74.2456055,5.50976563 C74.3709316,5.62695371 74.4718421,5.7766918 74.5483398,5.95898438 C74.6248376,6.14127695 74.6630859,6.34472544 74.6630859,6.56933594 C74.6630859,6.98600469 74.5052099,7.34895679 74.1894531,7.65820313 C73.8736963,7.96744946 73.4456407,8.12207031 72.9052734,8.12207031 C72.6611316,8.12207031 72.3885106,8.08138062 72.0874023,8 C71.7862941,7.91861938 71.5413421,7.8225917 71.3525391,7.71191406 Z" id="CONNECT-ID-docs" fill="#000000"></path>
    </g>
</svg>